<svg xmlns="http://www.w3.org/2000/svg" viewBox="0 0 3892.86 1273.03"><defs><style>.cls-1{fill:#29abe2;}.cls-1,.cls-2,.cls-3,.cls-4{stroke:#000;}.cls-1,.cls-2,.cls-3,.cls-4,.cls-5,.cls-6,.cls-7{stroke-miterlimit:10;}.cls-2{fill:#0071bc;}.cls-3{fill:#2e3192;}.cls-4{fill:#5cb130;}.cls-5{fill:#009245;stroke:#006837;}.cls-6{fill:#fff;}.cls-6,.cls-7{stroke:#1d1d1b;}.cls-7{fill:#fdca09;}</style></defs><g id="Hintergrund"><path class="cls-1" d="M3847.5,557c-208-28.72-662.68.62-1008-140.5-379.19-155-372-365-514-363-88.36,1.24-144.76,128.11-298,201C1669.06,425,1385,447.33,1342.5,463c-97.71,36.05-520.61,339-1335-248.5l-.5,443,732.91-77L1297.5,547l680-12L3031.66,657.54,3847.5,792.35Z" transform="translate(44.86 -52.99)"/><path class="cls-2" d="M3846.5,1251.5,7.5,904.5c12.67-95.33-12.67-188.67,0-284,153.09-23.33,429.66-68.68,715-152,457.7-133.64,491.48-211.19,711-222,465.81-22.93,537.2,315.24,967,300,416.63-14.77,539.36-339.27,892-292,248,33.24,429.88,226.24,548,392Z" transform="translate(44.86 -52.99)"/><path class="cls-3" d="M-44.5,1071.5c462-493,817.93-521.74,870-523,449-10.86,555.53,299.87,1042.65,254,398.19-37.53,527.49-278.75,982.35-238,106.65,9.56,202.43,34.37,394,84,473.75,122.73,535.29,218.62,554,253,23.36,42.93,69,153.55-3,353" transform="translate(44.86 -52.99)"/><path class="cls-4" d="M3839.5,917.73c-527-66.29-1186.68-118.31-2026-114.31-729.14,3.48-1340,22.91-1814,87l8,296.12,3838,139Z" transform="translate(44.86 -52.99)"/></g><g id="Blume"><path class="cls-5" d="M423.84,906.23C394,827.93,367.2,801.67,367.2,801.67s46.93,34.66,71.54,99.89c9.64,25.55-37.33-113.3-37.33-113.3l52.16,105,17.86-180-13.76,179,55.56-55.52L487,901.56" transform="translate(44.86 -52.99)"/><path class="cls-6" d="M479.68,716.93c1.78,5.6,4.32,11,5.86,16.63s2,11.8-.27,17.22c-2.72,6.42-9.26,11.12-16.47,12.56a15.32,15.32,0,0,1-8.88-.5,9.58,9.58,0,0,1-5.73-7.16c-.5-3.34.95-6.63,2.37-9.73,3.2-7,7-21.18,10.24-28.17C467.88,715.41,468.36,720.21,479.68,716.93Z" transform="translate(44.86 -52.99)"/><path class="cls-6" d="M468.7,720c-2.69,5.21-4.7,10.81-7.61,15.9s-6.91,9.77-12.37,12c-6.46,2.62-14.4,1.32-20.52-2.76a15.18,15.18,0,0,1-5.93-6.63,9.55,9.55,0,0,1,1-9.12c2-2.71,5.36-4,8.55-5.2,7.2-2.68,20-10,27.16-12.68C461.44,710.6,458.39,714.33,468.7,720Z" transform="translate(44.86 -52.99)"/><path class="cls-6" d="M458.76,714.44c-5.59,1.78-11,4.32-16.63,5.86s-11.79,2-17.22-.28c-6.41-2.72-11.11-9.25-12.56-16.46a15.32,15.32,0,0,1,.5-8.88A9.55,9.55,0,0,1,420,689c3.33-.5,6.63.95,9.73,2.37,7,3.2,21.18,7,28.16,10.24C460.28,702.64,455.49,703.12,458.76,714.44Z" transform="translate(44.86 -52.99)"/><path class="cls-6" d="M455.68,703.46c-5.22-2.7-10.81-4.7-15.9-7.61s-9.78-6.91-12-12.37c-2.61-6.46-1.31-14.41,2.76-20.53a15.3,15.3,0,0,1,6.64-5.92,9.53,9.53,0,0,1,9.11,1c2.72,2,4,5.36,5.21,8.56,2.68,7.2,10,19.95,12.68,27.15C465.09,696.19,461.37,693.14,455.68,703.46Z" transform="translate(44.86 -52.99)"/><path class="cls-6" d="M461.26,693.52c-1.78-5.6-4.32-11-5.86-16.63s-2-11.8.27-17.22c2.72-6.42,9.26-11.12,16.47-12.56a15.32,15.32,0,0,1,8.88.5,9.55,9.55,0,0,1,5.72,7.16c.51,3.34-.94,6.63-2.36,9.73-3.2,7-7,21.18-10.24,28.17C473.05,695,472.58,690.25,461.26,693.52Z" transform="translate(44.86 -52.99)"/><path class="cls-6" d="M472.24,690.44c2.69-5.22,4.7-10.82,7.61-15.91s6.91-9.77,12.37-12c6.46-2.61,14.4-1.32,20.52,2.76a15.29,15.29,0,0,1,5.93,6.63,9.55,9.55,0,0,1-1,9.12c-2,2.71-5.36,4-8.55,5.2-7.2,2.68-20,10-27.16,12.68C479.5,699.85,482.55,696.13,472.24,690.44Z" transform="translate(44.86 -52.99)"/><path class="cls-6" d="M482.18,696c5.59-1.79,11-4.32,16.62-5.86s11.8-2,17.23.27c6.41,2.72,11.11,9.25,12.56,16.46a15.24,15.24,0,0,1-.51,8.88,9.52,9.52,0,0,1-7.16,5.73c-3.33.5-6.63-1-9.73-2.36-7-3.2-21.18-7-28.16-10.24C480.66,707.81,485.45,707.34,482.18,696Z" transform="translate(44.86 -52.99)"/><path class="cls-6" d="M485.26,707c5.22,2.7,10.81,4.71,15.9,7.62s9.78,6.9,12,12.37c2.61,6.46,1.31,14.4-2.76,20.52a15.3,15.3,0,0,1-6.64,5.92,9.53,9.53,0,0,1-9.11-1c-2.72-2-4-5.36-5.21-8.55-2.68-7.21-10-20-12.68-27.16C475.85,714.26,479.57,717.31,485.26,707Z" transform="translate(44.86 -52.99)"/><ellipse class="cls-7" cx="514.4" cy="653.3" rx="18.81" ry="17.61"/></g></svg>